<svg width="520.3812133789063px" height="122px" xmlns="http://www.w3.org/2000/svg" viewBox="-10.190606689453148 14 520.3812133789063 122" style="background: rgba(0, 0, 0, 0);" preserveAspectRatio="xMidYMid"><defs><filter id="editing-jagged" x="-100%" y="-100%" width="300%" height="300%"><feTurbulence result="turb" baseFrequency="0.1" numOctaves="1" seed="1"></feTurbulence><feDisplacementMap in="SourceGraphic" in2="turb" scale="10"></feDisplacementMap></filter></defs><g filter="url(#editing-jagged)"><g transform="translate(67.82499387860298, 102.74499893188477)"><path d="M26.11-42.69L26.11-42.69L26.11-42.69Q41.79-42.69 41.79-31.62L41.79-31.62L41.79-31.62Q41.79-25.54 37.89-21.89L37.89-21.89L37.89-21.89Q34.05-18.24 27.33-18.24L27.33-18.24L27.33-18.24Q24.19-18.24 21.76-20.03L21.76-20.03L21.76-20.03Q20.61-20.80 19.84-21.82L19.84-21.82L19.84-21.82Q24.51-21.82 26.98-24.67L26.98-24.67L26.98-24.67Q29.44-27.52 29.44-33.09L29.44-33.09L29.44-33.09Q29.44-38.66 23.94-38.66L23.94-38.66L22.40-38.66L22.40-38.66Q22.02-38.66 21.70-38.59L21.70-38.59L14.34 0L0.45 0L8.32-41.92L8.32-41.92Q15.17-42.56 19.14-42.62L19.14-42.62L19.14-42.62Q23.10-42.69 26.11-42.69ZM61.25-22.46L61.25-22.46L61.25-22.46Q62.14-24.83 62.14-26.88L62.14-26.88L62.14-26.88Q62.14-30.66 59.07-30.66L59.07-30.66L59.07-30.66Q57.47-30.66 56.16-29.22L56.16-29.22L56.16-29.22Q54.85-27.78 54.85-25.98L54.85-25.98L54.85-25.98Q54.85-24.70 55.87-23.68L55.87-23.68L55.87-23.68Q57.34-22.27 61.12-19.97L61.12-19.97L61.12-19.97Q64.90-17.66 66.34-15.78L66.34-15.78L66.34-15.78Q67.78-13.89 67.78-11.30L67.78-11.30L67.78-11.30Q67.78-8.70 66.53-6.34L66.53-6.34L66.53-6.34Q65.28-3.97 63.04-2.30L63.04-2.30L63.04-2.30Q58.24 1.28 50.56 1.28L50.56 1.28L50.56 1.28Q46.40 1.28 43.20-0.90L43.20-0.90L43.20-0.90Q40-3.01 40-5.50L40-5.50L40-5.50Q40-8 41.82-9.47L41.82-9.47L41.82-9.47Q43.65-10.94 46.34-10.94L46.34-10.94L46.34-10.94Q49.02-10.94 50.69-9.92L50.69-9.92L50.69-9.92Q49.86-7.81 49.86-6.40L49.86-6.40L49.86-6.40Q49.86-2.18 53.44-2.18L53.44-2.18L53.44-2.18Q54.98-2.18 56-3.14L56-3.14L56-3.14Q57.02-4.10 57.02-5.76L57.02-5.76L57.02-5.76Q57.02-9.02 51.52-12.48L51.52-12.48L51.52-12.48Q47.04-15.42 46.02-16.58L46.02-16.58L46.02-16.58Q44.29-18.62 44.29-21.18L44.29-21.18L44.29-21.18Q44.29-23.74 45.50-26.18L45.50-26.18L45.50-26.18Q46.72-28.61 48.96-30.34L48.96-30.34L48.96-30.34Q53.63-33.92 61.76-33.92L61.76-33.92L61.76-33.92Q65.92-33.92 68.38-32.26L68.38-32.26L68.38-32.26Q70.85-30.59 70.85-27.78L70.85-27.78L70.85-27.78Q70.85-24.96 69.15-23.36L69.15-23.36L69.15-23.36Q67.46-21.76 64.38-21.76L64.38-21.76L64.38-21.76Q62.27-21.76 61.25-22.46ZM77.76-26.75L77.76-26.75L77.76-26.75Q79.94-29.82 83.23-31.87L83.23-31.87L83.23-31.87Q86.53-33.92 90.56-33.92L90.56-33.92L90.56-33.92Q94.59-33.92 96.51-32.64L96.51-32.64L109.06-33.92L104.70-9.34L104.70-9.34Q102.46 3.20 97.73 8.13L97.73 8.13L97.73 8.13Q93.18 12.80 84.35 12.80L84.35 12.80L84.35 12.80Q77.63 12.80 73.79 10.69L73.79 10.69L73.79 10.69Q69.95 8.58 69.95 5.06L69.95 5.06L69.95 5.06Q69.95 2.43 71.94 0.93L71.94 0.93L71.94 0.93Q73.92-0.58 76.99-0.58L76.99-0.58L76.99-0.58Q79.68-0.58 81.73 0.64L81.73 0.64L81.73 0.64Q82.94 1.28 83.52 2.18L83.52 2.18L83.52 2.18Q82.05 3.46 82.05 5.57L82.05 5.57L82.05 5.57Q82.05 8.32 84.61 8.32L84.61 8.32L84.61 8.32Q88.90 8.32 91.33-1.79L91.33-1.79L91.33-1.79Q92.03-4.54 92.61-7.30L92.61-7.30L92.61-7.30Q89.73-3.78 83.20-3.78L83.20-3.78L83.20-3.78Q78.66-3.78 76.03-5.95L76.03-5.95L76.03-5.95Q73.41-8.13 73.41-13.25L73.41-13.25L73.41-13.25Q73.41-16.45 74.50-20.06L74.50-20.06L74.50-20.06Q75.58-23.68 77.76-26.75ZM86.08-13.06L86.08-13.06L86.08-13.06Q86.08-8.70 88.32-8.70L88.32-8.70L88.32-8.70Q89.86-8.70 91.33-10.37L91.33-10.37L91.33-10.37Q92.48-11.71 92.93-13.70L92.93-13.70L96.19-30.14L96.19-30.14Q95.87-30.21 95.55-30.34L95.55-30.34L95.55-30.34Q94.91-30.59 94.08-30.59L94.08-30.59L94.08-30.59Q90.18-30.59 87.87-24.19L87.87-24.19L87.87-24.19Q86.08-19.20 86.08-13.06ZM141.38-4.38L141.38-4.38L141.38-4.38Q138.69-1.66 135.01-0.19L135.01-0.19L135.01-0.19Q131.33 1.28 127.68 1.28L127.68 1.28L127.68 1.28Q124.03 1.28 122.75 0.64L122.75 0.64L120.77 11.52L107.78 12.80L116.61-32.64L127.04-33.73L126.21-29.31L126.21-29.31Q128.90-33.86 134.46-33.86L134.46-33.86L134.46-33.86Q140.74-33.86 144.06-29.82L144.06-29.82L144.06-29.82Q147.01-26.18 147.01-20.61L147.01-20.61L147.01-20.61Q147.01-15.04 145.54-11.07L145.54-11.07L145.54-11.07Q144.06-7.10 141.38-4.38ZM126.91-22.34L123.52-3.58L123.52-3.58Q124.86-2.43 126.53-2.43L126.53-2.43L126.53-2.43Q128.19-2.43 129.15-3.07L129.15-3.07L129.15-3.07Q130.11-3.71 130.82-4.99L130.82-4.99L130.82-4.99Q132.74-8.45 134.27-18.94L134.27-18.94L134.27-18.94Q134.72-22.02 134.72-25.02L134.72-25.02L134.72-25.02Q134.72-28.03 134.05-28.99L134.05-28.99L134.05-28.99Q133.38-29.95 132.10-29.95L132.10-29.95L132.10-29.95Q128.19-29.95 126.91-22.34L126.91-22.34ZM170.88-17.98L170.88-17.98L170.88-17.98Q173.18-22.08 173.18-26.24L173.18-26.24L173.18-26.24Q173.18-28.99 171.20-28.99L171.20-28.99L171.20-28.99Q169.66-28.99 168.06-26.37L168.06-26.37L168.06-26.37Q166.40-23.74 165.89-20.35L165.89-20.35L162.56 0L149.31 1.28L155.84-32.64L166.40-33.92L165.25-27.46L165.25-27.46Q168.38-33.92 175.42-33.92L175.42-33.92L175.42-33.92Q179.14-33.92 181.15-32L181.15-32L181.15-32Q183.17-30.08 183.17-26.14L183.17-26.14L183.17-26.14Q183.17-22.21 180.58-19.71L180.58-19.71L180.58-19.71Q177.98-17.22 173.57-17.22L173.57-17.22L173.57-17.22Q171.65-17.22 170.88-17.98ZM186.98-1.92L186.98-1.92L186.98-1.92Q185.47-3.58 184.80-6.21L184.80-6.21L184.80-6.21Q184.13-8.83 184.13-13.12L184.13-13.12L184.13-13.12Q184.13-17.41 185.60-21.31L185.60-21.31L185.60-21.31Q187.07-25.22 189.76-28.03L189.76-28.03L189.76-28.03Q195.26-33.92 204.35-33.92L204.35-33.92L204.35-33.92Q207.62-33.92 209.98-32.83L209.98-32.83L220.93-33.92L216.19-8.96L216.19-8.96Q216-8.19 216-6.78L216-6.78L216-6.78Q216-5.38 216.86-4.48L216.86-4.48L216.86-4.48Q217.73-3.58 219.01-3.46L219.01-3.46L219.01-3.46Q218.37-1.28 216.03 0L216.03 0L216.03 0Q213.70 1.28 211.07 1.28L211.07 1.28L211.07 1.28Q208.45 1.28 206.69 0.29L206.69 0.29L206.69 0.29Q204.93-0.70 204.42-2.37L204.42-2.37L204.42-2.37Q203.39-0.77 201.22 0.26L201.22 0.26L201.22 0.26Q199.04 1.28 196.13 1.28L196.13 1.28L196.13 1.28Q193.22 1.28 190.85 0.51L190.85 0.51L190.85 0.51Q188.48-0.26 186.98-1.92ZM200.48-27.90L200.48-27.90L200.48-27.90Q199.74-26.75 199.10-24.80L199.10-24.80L199.10-24.80Q198.46-22.85 197.41-17.63L197.41-17.63L197.41-17.63Q196.35-12.42 196.35-8.70L196.35-8.70L196.35-8.70Q196.35-4.99 196.93-3.90L196.93-3.90L196.93-3.90Q197.50-2.82 198.53-2.82L198.53-2.82L198.53-2.82Q200.58-2.82 202.08-4.77L202.08-4.77L202.08-4.77Q203.58-6.72 204.16-10.18L204.16-10.18L207.55-28.93L207.55-28.93Q206.21-30.08 204.64-30.08L204.64-30.08L204.64-30.08Q203.07-30.08 202.14-29.57L202.14-29.57L202.14-29.57Q201.22-29.06 200.48-27.90ZM247.62-31.55L247.62-31.55L247.62-31.55Q249.73-33.92 253.38-33.92L253.38-33.92L253.38-33.92Q255.62-33.92 257.34-32.70L257.34-32.70L257.34-32.70Q259.07-31.49 259.07-29.22L259.07-29.22L259.07-29.22Q259.07-26.94 258.37-24.51L258.37-24.51L258.37-24.51Q257.66-22.08 256.58-19.58L256.58-19.58L256.58-19.58Q254.40-14.72 251.39-10.69L251.39-10.69L251.39-10.69Q247.17-4.86 243.10-1.79L243.10-1.79L243.10-1.79Q239.04 1.28 234.62 1.28L234.62 1.28L234.62 1.28Q231.04 1.28 228.86 0.45L228.86 0.45L228.86 0.45Q228.48-12.99 228-17.79L228-17.79L228-17.79Q227.52-22.59 227.14-25.22L227.14-25.22L227.14-25.22Q226.50-30.34 224.58-31.55L224.58-31.55L224.58-31.55Q226.05-32.83 227.49-33.38L227.49-33.38L227.49-33.38Q228.93-33.92 231.90-33.92L231.90-33.92L231.90-33.92Q234.88-33.92 236.99-31.58L236.99-31.58L236.99-31.58Q239.10-29.25 239.52-25.12L239.52-25.12L239.52-25.12Q239.94-20.99 239.94-16L239.94-16L239.94-16Q239.94-11.01 239.55-4.99L239.55-4.99L239.55-4.99Q241.54-6.40 243.65-10.69L243.65-10.69L243.65-10.69Q246.53-16.64 247.55-23.81L247.55-23.81L247.55-23.81Q247.87-25.98 247.87-28.29L247.87-28.29L247.87-28.29Q247.87-30.59 247.62-31.55ZM286.72-10.82L286.72-10.82L286.72-10.82Q288.32-9.73 288.32-7.33L288.32-7.33L288.32-7.33Q288.32-4.93 287.10-3.39L287.10-3.39L287.10-3.39Q285.89-1.86 283.90-0.83L283.90-0.83L283.90-0.83Q279.81 1.28 275.39 1.28L275.39 1.28L275.39 1.28Q270.98 1.28 268.38 0.32L268.38 0.32L268.38 0.32Q265.79-0.64 264.06-2.43L264.06-2.43L264.06-2.43Q260.67-5.82 260.67-12.03L260.67-12.03L260.67-12.03Q260.67-21.70 265.92-27.58L265.92-27.58L265.92-27.58Q271.55-33.92 281.34-33.92L281.34-33.92L281.34-33.92Q287.42-33.92 290.43-31.36L290.43-31.36L290.43-31.36Q292.67-29.44 292.67-26.30L292.67-26.30L292.67-26.30Q292.67-15.04 273.22-15.04L273.22-15.04L273.22-15.04Q272.96-13.38 272.96-11.97L272.96-11.97L272.96-11.97Q272.96-9.02 274.27-7.90L274.27-7.90L274.27-7.90Q275.58-6.78 278.02-6.78L278.02-6.78L278.02-6.78Q280.45-6.78 283.04-7.90L283.04-7.90L283.04-7.90Q285.63-9.02 286.72-10.82ZM273.66-17.79L273.66-17.79L273.66-17.79Q278.21-17.79 280.83-20.61L280.83-20.61L280.83-20.61Q283.46-23.30 283.46-27.58L283.46-27.58L283.46-27.58Q283.46-29.06 282.91-29.86L282.91-29.86L282.91-29.86Q282.37-30.66 281.28-30.66L281.28-30.66L281.28-30.66Q280.19-30.66 279.26-30.24L279.26-30.24L279.26-30.24Q278.34-29.82 277.38-28.42L277.38-28.42L277.38-28.42Q275.01-25.22 273.66-17.79ZM320.77-10.82L320.77-10.82L320.77-10.82Q322.37-9.73 322.37-7.33L322.37-7.33L322.37-7.33Q322.37-4.93 321.15-3.39L321.15-3.39L321.15-3.39Q319.94-1.86 317.95-0.83L317.95-0.83L317.95-0.83Q313.86 1.28 309.44 1.28L309.44 1.28L309.44 1.28Q305.02 1.28 302.43 0.32L302.43 0.32L302.43 0.32Q299.84-0.64 298.11-2.43L298.11-2.43L298.11-2.43Q294.72-5.82 294.72-12.03L294.72-12.03L294.72-12.03Q294.72-21.70 299.97-27.58L299.97-27.58L299.97-27.58Q305.60-33.92 315.39-33.92L315.39-33.92L315.39-33.92Q321.47-33.92 324.48-31.36L324.48-31.36L324.48-31.36Q326.72-29.44 326.72-26.30L326.72-26.30L326.72-26.30Q326.72-15.04 307.26-15.04L307.26-15.04L307.26-15.04Q307.01-13.38 307.01-11.97L307.01-11.97L307.01-11.97Q307.01-9.02 308.32-7.90L308.32-7.90L308.32-7.90Q309.63-6.78 312.06-6.78L312.06-6.78L312.06-6.78Q314.50-6.78 317.09-7.90L317.09-7.90L317.09-7.90Q319.68-9.02 320.77-10.82ZM307.71-17.79L307.71-17.79L307.71-17.79Q312.26-17.79 314.88-20.61L314.88-20.61L314.88-20.61Q317.50-23.30 317.50-27.58L317.50-27.58L317.50-27.58Q317.50-29.06 316.96-29.86L316.96-29.86L316.96-29.86Q316.42-30.66 315.33-30.66L315.33-30.66L315.33-30.66Q314.24-30.66 313.31-30.24L313.31-30.24L313.31-30.24Q312.38-29.82 311.42-28.42L311.42-28.42L311.42-28.42Q309.06-25.22 307.71-17.79ZM355.97 1.28L355.97 1.28L355.97 1.28Q348.22 1.28 348.22-4.74L348.22-4.74L348.22-4.74Q348.29-6.40 348.80-9.22L348.80-9.22L349.95-15.10L349.95-15.10Q351.68-23.42 351.68-25.28L351.68-25.28L351.68-25.28Q351.68-28.99 349.50-28.99L349.50-28.99L349.50-28.99Q345.86-28.99 343.94-19.46L343.94-19.46L340.16 0L327.30 1.28L333.95-32.70L344.45-33.92L343.42-27.65L343.42-27.65Q346.43-33.92 355.65-33.92L355.65-33.92L355.65-33.92Q360.13-33.92 362.02-32.03L362.02-32.03L362.02-32.03Q363.90-30.14 363.90-25.92L363.90-25.92L363.90-25.92Q363.90-21.95 361.86-12.67L361.86-12.67L361.86-12.67Q360.90-8.51 360.90-6.94L360.90-6.94L360.90-6.94Q360.90-5.38 361.76-4.48L361.76-4.48L361.76-4.48Q362.62-3.58 363.90-3.46L363.90-3.46L363.90-3.46Q363.26-1.28 361.06 0L361.06 0L361.06 0Q358.85 1.28 355.97 1.28Z" fill="#444"></path></g></g><style>text {
  font-size: 64px;
  font-family: Arial Black;
  dominant-baseline: central;
  text-anchor: middle;
}</style></svg>